<?xml version="1.0" standalone="no"?>
<!DOCTYPE svg PUBLIC "-//W3C//DTD SVG 20010904//EN"
 "http://www.w3.org/TR/2001/REC-SVG-20010904/DTD/svg10.dtd">
<svg version="1.0" xmlns="http://www.w3.org/2000/svg"
 width="512.000000pt" height="512.000000pt" viewBox="0 0 512.000000 512.000000"
 preserveAspectRatio="xMidYMid meet">
<metadata>
Created by potrace 1.14, written by Peter Selinger 2001-2017
</metadata>
<g transform="translate(0.000000,512.000000) scale(0.100000,-0.100000)"
fill="#000000" stroke="none">
<path d="M2457 5114 c-1 -1 -31 -4 -67 -8 -106 -9 -139 -16 -249 -47 -271 -77
-476 -237 -582 -453 -49 -101 -88 -242 -89 -318 0 -35 -4 -40 -45 -59 -76 -36
-126 -111 -126 -192 -1 -90 36 -152 114 -197 l52 -30 0 -1251 0 -1251 -47 -24
c-159 -81 -160 -301 0 -387 47 -26 52 -31 52 -63 0 -58 30 -185 62 -261 145
-351 498 -554 983 -566 326 -9 588 62 800 216 191 138 330 393 334 614 1 28 7
35 53 60 159 86 159 313 -1 387 l-46 21 0 1255 0 1255 46 21 c160 74 160 301
1 387 -49 26 -52 31 -53 68 -1 21 -2 42 -3 47 -1 4 -6 27 -10 52 -4 25 -17 72
-28 105 -115 340 -413 553 -853 611 -46 6 -292 13 -298 8z"/>
</g>
</svg>
